<svg id="Layer_1" data-name="Layer 1" xmlns="http://www.w3.org/2000/svg" viewBox="0 0 489.26165 197.01016"><defs><style>.cls-1{fill:none;stroke:#000;stroke-linecap:round;stroke-linejoin:round;stroke-width:0.283px;}</style></defs><title>SoftPop2_EURORACK_CONV_AI_bothsides</title><path class="cls-1" d="M.00141,141.73228h488.976" transform="translate(0.1415 0.1415)"/><path class="cls-1" d="M488.97639,196.72578v-54.992" transform="translate(0.1415 0.1415)"/><path class="cls-1" d="M463.534,196.72438h25.444" transform="translate(0.1415 0.1415)"/><path class="cls-1" d="M463.534,196.72716a8.508,8.508,0,0,1-8.503-8.505" transform="translate(0.1415 0.1415)"/><path class="cls-1" d="M455.03149,169.51317v18.709" transform="translate(0.1415 0.1415)"/><path class="cls-1" d="M33.94911,169.51176h421.081" transform="translate(0.1415 0.1415)"/><path class="cls-1" d="M0,196.72578v-54.992" transform="translate(0.1415 0.1415)"/><path class="cls-1" d="M25.44508,196.72716H.00111" transform="translate(0.1415 0.1415)"/><path class="cls-1" d="M33.95051,188.22188a8.508,8.508,0,0,1-8.50494,8.503" transform="translate(0.1415 0.1415)"/><path class="cls-1" d="M33.95051,169.51317v18.709" transform="translate(0.1415 0.1415)"/><path class="cls-1" d="M466.39979,145.698h3.196" transform="translate(0.1415 0.1415)"/><path class="cls-1" d="M462.06139,150.03267a4.33839,4.33839,0,0,1,4.338-4.332" transform="translate(0.1415 0.1415)"/><path class="cls-1" d="M462.06139,150.529v-.496" transform="translate(0.1415 0.1415)"/><path class="cls-1" d="M466.39979,154.78578a4.29977,4.29977,0,0,1-4.336-4.257" transform="translate(0.1415 0.1415)"/><path class="cls-1" d="M469.59589,154.78578h-3.196" transform="translate(0.1415 0.1415)"/><path class="cls-1" d="M473.96269,150.529a4.3136,4.3136,0,0,1-4.367,4.254" transform="translate(0.1415 0.1415)"/><path class="cls-1" d="M473.96269,150.033v.496" transform="translate(0.1415 0.1415)"/><path class="cls-1" d="M469.59589,145.698a4.35292,4.35292,0,0,1,4.364,4.335" transform="translate(0.1415 0.1415)"/><path class="cls-1" d="M22.682,145.698h0Z" transform="translate(0.1415 0.1415)"/><path class="cls-1" d="M19.48622,145.70076a4.33535,4.33535,0,0,0-4.338,4.339A4.34112,4.34112,0,0,1,19.48622,145.70076Z" transform="translate(0.1415 0.1415)"/><path class="cls-1" d="M15.14771,150.04008v0Z" transform="translate(0.1415 0.1415)"/><path class="cls-1" d="M15.15028,150.53578a4.2907,4.2907,0,0,0,4.33606,4.25A4.2958,4.2958,0,0,1,15.15028,150.53578Z" transform="translate(0.1415 0.1415)"/><path class="cls-1" d="M19.48622,154.78578h0Z" transform="translate(0.1415 0.1415)"/><path class="cls-1" d="M22.6822,154.783a4.3057,4.3057,0,0,0,4.367-4.247A4.31019,4.31019,0,0,1,22.6822,154.783Z" transform="translate(0.1415 0.1415)"/><path class="cls-1" d="M27.04872,150.53606v0Z" transform="translate(0.1415 0.1415)"/><path class="cls-1" d="M27.04621,150.04008a4.34987,4.34987,0,0,0-4.36395-4.342A4.35632,4.35632,0,0,1,27.04621,150.04008Z" transform="translate(0.1415 0.1415)"/><path class="cls-1" d="M469.06009,187.11638a4.2505,4.2505,0,1,1-4.251-4.251A4.25068,4.25068,0,0,1,469.06009,187.11638Z" transform="translate(0.1415 0.1415)"/><path class="cls-1" d="M28.42011,187.11638a4.25049,4.25049,0,1,1-4.251-4.251A4.25064,4.25064,0,0,1,28.42011,187.11638Z" transform="translate(0.1415 0.1415)"/><path d="M229.36488,151.24837a25.103,25.103,0,0,0-.046,2.654c.015.606.076.641.727.829a11.45331,11.45331,0,0,0,3.246.427,23.49876,23.49876,0,0,0,2.965-.216c.362-.044.722-.092,1.083-.141l.187-.025c1.158-.155,2.357-.316,3.549-.362a22.83392,22.83392,0,0,0,3.987-.527c.176-.037.353-.066.551-.097l.755-.127.058.467a2.42573,2.42573,0,0,1-1.164,2.29l-.041.034a4.418,4.418,0,0,0-.388.345,7.19712,7.19712,0,0,1-1.158.936l-.315.214.38.014a38.57492,38.57492,0,0,0,5.296-.147c1.54-.155,2.923-.263,4.227-.331l.151-.005a1.24954,1.24954,0,0,1,1.134.486,1.0946,1.0946,0,0,1,.028,1.085c-.565,1.333-1.205,2.844-1.953,4.28a1.0465,1.0465,0,0,0-.135.951l.032.073.079.002a13.79168,13.79168,0,0,0,7.838-1.846l.244-.11a6.86809,6.86809,0,0,1,.746-.42c.719-.367,1.166-.626,1.288-1.293a.84388.84388,0,0,1,.456-.551l.236-.144c.462-.285.917-.561,1.39-.817a33.134,33.134,0,0,0,6.51-5.072l.307-.283a23.608,23.608,0,0,0,2.562-2.792c.346-.442.727-.863,1.094-1.27a10.53915,10.53915,0,0,0,2.093-2.92l.072-.171-.639-.012c-.186-.003-.372-.006-.552-.013-.369-.014-.692-.037-.998-.068l-.658-.025-.012-.459-.25.004v.464a.31486.31486,0,0,0-.059.02c-.774.449-1.546.906-2.32,1.363l-1.302.768c-.297.176-.579.375-.851.568a6.34093,6.34093,0,0,1-2.21,1.147,1.284,1.284,0,0,0-.384.236c-.091.068-.183.136-.276.195-.126.08-.251.164-.375.247l-.046.031a9.38916,9.38916,0,0,1-.996.607,23.19744,23.19744,0,0,0-5.116,3.268,1.28952,1.28952,0,0,1-.509.241l-.032.01c-.09.028-.2.063-.333.113l-.924.343.531-1.433a8.06063,8.06063,0,0,1,.302-.772c.181-.378.372-.752.569-1.139a23.794,23.794,0,0,0,1.077-2.309l.089-.232-.239.067c-.453.126-.9.281-1.41.46a10.92611,10.92611,0,0,1-3.699.81l-.793.002.406-.681a13.69039,13.69039,0,0,1,2.591-3.042l.405-.378-.528.168c-.134.042-.267.087-.399.131l-.132.043c-.478.155-.956.312-1.437.46-1.05.323-1.975.588-2.829.811-.295.077-.601.13-.897.181l-.033.006c-.258.045-.524.091-.782.159-.625.161-1.248.33-1.87.499l-.4.109c-.789.213-1.578.427-2.37.627a2.28527,2.28527,0,0,1-.563.082,1.23978,1.23978,0,0,1-1.075-.589.33768.33768,0,0,0-.305-.193.82586.82586,0,0,0-.286.063,1.28331,1.28331,0,0,1-1.03.07,2.61849,2.61849,0,0,0-1.943-.109l-.239.033a1.59818,1.59818,0,0,1-.43-.074c-.375-.102-.717-.199-1.086-.304l-1.104-.316-.078-.217c-.253-.701-.777-.523-1.198-.379a1.96859,1.96859,0,0,1-1.454-.358,2.20921,2.20921,0,0,0-1.326-.463l-.147.005a3.64223,3.64223,0,0,1-.785-.056c-.261-.042-.52-.09-.78-.139-.464-.089-.851-.16-1.257-.21a17.92382,17.92382,0,0,0-1.832-.106c-.717-.012-1.434-.032-2.151-.054-1.735-.052-3.528-.105-5.33-.019-2.678.133-5.4.465-8.045.787l-.31.038c-.632.077-1.253.195-1.777.3l-.672.134.676.112a61.67154,61.67154,0,0,0,7.983.606c1.245.038,2.367.075,3.495.14a43.03072,43.03072,0,0,1,4.344.51,1.36717,1.36717,0,0,1,1.324,1.691" transform="translate(0.1415 0.1415)"/><path class="cls-1" d="M.0014,70.86614h488.976" transform="translate(0.1415 0.1415)"/><path class="cls-1" d="M488.97641,125.85973V70.86779" transform="translate(0.1415 0.1415)"/><path class="cls-1" d="M463.534,125.85821h25.444" transform="translate(0.1415 0.1415)"/><path class="cls-1" d="M463.534,125.86114a8.508,8.508,0,0,1-8.503-8.505" transform="translate(0.1415 0.1415)"/><path class="cls-1" d="M455.03152,98.64715v18.709" transform="translate(0.1415 0.1415)"/><path class="cls-1" d="M33.9492,98.64574h421.081" transform="translate(0.1415 0.1415)"/><path class="cls-1" d="M0,125.85973V70.86779" transform="translate(0.1415 0.1415)"/><path class="cls-1" d="M25.4452,125.86114H.0012" transform="translate(0.1415 0.1415)"/><path class="cls-1" d="M33.9506,117.3557a8.50805,8.50805,0,0,1-8.505,8.50306" transform="translate(0.1415 0.1415)"/><path class="cls-1" d="M33.9506,98.64715v18.709" transform="translate(0.1415 0.1415)"/><path class="cls-1" d="M466.39993,74.83184h3.196" transform="translate(0.1415 0.1415)"/><path class="cls-1" d="M462.06143,79.1665a4.33835,4.33835,0,0,1,4.338-4.332" transform="translate(0.1415 0.1415)"/><path class="cls-1" d="M462.06143,79.66289v-.496" transform="translate(0.1415 0.1415)"/><path class="cls-1" d="M466.39993,83.91973a4.29975,4.29975,0,0,1-4.33606-4.257" transform="translate(0.1415 0.1415)"/><path class="cls-1" d="M469.59591,83.91973h-3.196" transform="translate(0.1415 0.1415)"/><path class="cls-1" d="M473.96267,79.66289a4.31364,4.31364,0,0,1-4.367,4.254" transform="translate(0.1415 0.1415)"/><path class="cls-1" d="M473.96267,79.1668v.496" transform="translate(0.1415 0.1415)"/><path class="cls-1" d="M469.59591,74.83184a4.353,4.353,0,0,1,4.364,4.335" transform="translate(0.1415 0.1415)"/><path class="cls-1" d="M22.682,74.83184h0Z" transform="translate(0.1415 0.1415)"/><path class="cls-1" d="M19.4862,74.83465a4.33546,4.33546,0,0,0-4.338,4.33905A4.34123,4.34123,0,0,1,19.4862,74.83465Z" transform="translate(0.1415 0.1415)"/><path class="cls-1" d="M15.1478,79.17394v0Z" transform="translate(0.1415 0.1415)"/><path class="cls-1" d="M15.1504,79.66973a4.29058,4.29058,0,0,0,4.336,4.25A4.2963,4.2963,0,0,1,15.1504,79.66973Z" transform="translate(0.1415 0.1415)"/><path class="cls-1" d="M19.4862,83.91973h0Z" transform="translate(0.1415 0.1415)"/><path class="cls-1" d="M22.6823,83.9168a4.305,4.305,0,0,0,4.367-4.24695A4.31016,4.31016,0,0,1,22.6823,83.9168Z" transform="translate(0.1415 0.1415)"/><path class="cls-1" d="M27.0488,79.67v0Z" transform="translate(0.1415 0.1415)"/><path class="cls-1" d="M27.0462,79.17394a4.35,4.35,0,0,0-4.364-4.342A4.35639,4.35639,0,0,1,27.0462,79.17394Z" transform="translate(0.1415 0.1415)"/><path class="cls-1" d="M469.06021,116.25024a4.25052,4.25052,0,1,1-4.251-4.251A4.25073,4.25073,0,0,1,469.06021,116.25024Z" transform="translate(0.1415 0.1415)"/><path class="cls-1" d="M28.4202,116.25024a4.25051,4.25051,0,1,1-4.251-4.251A4.25072,4.25072,0,0,1,28.4202,116.25024Z" transform="translate(0.1415 0.1415)"/><path d="M200.95031,85.97631h-4.408v1.371h4.408c.896,0,1.058-.405,1.058-.684v-.039c0-.301-.172-.648-1.058-.648" transform="translate(0.1415 0.1415)"/><path d="M201.65231,83.92864v-.02c0-.291-.184-.554-.93-.554h-4.179v1.138h4.179c.746,0,.93-.283.93-.564" transform="translate(0.1415 0.1415)"/><path d="M206.73809,79.31188h-14.822v12.126h14.822Zm-1.952,7.546c0,1.108-.768,2.012-3.536,2.012h-7.382v-6.989h7.313c2.447,0,3.124.769,3.124,1.596v.131c0,.903-.942,1.268-1.355,1.363.584.122,1.836.536,1.836,1.757Z" transform="translate(0.1415 0.1415)"/><path d="M262.36709,82.85863c0-.468-.7-.761-2.025-.974-1.102-.177-2.648-.3-4.599-.418-.507-.031-1.026-.061-1.588-.093-2.612-.148-5.125-.27-5.125-.708,0-.439,2.525-.452,4.914-.452,2.275,0,4.374.101,5.027.633h3.017c-.616-1.106-3.968-1.559-8.081-1.559-4.031,0-7.763.385-7.763,1.418,0,.918,2.962,1.174,7.739,1.438,3.457.189,5.597.269,5.597.729,0,.338-1.12.526-5.15.526-2.313,0-6.02.055-6.02-.884h-2.913c0,1.451,4.827,1.809,8.982,1.809,5.624,0,7.988-.594,7.988-1.465" transform="translate(0.1415 0.1415)"/><polygon points="272.311 84.364 272.311 80.463 279.427 80.463 279.427 79.538 262.509 79.538 262.509 80.463 269.624 80.463 269.624 84.364 272.311 84.364"/><path d="M219.58471,79.39605h-8.882v4.826h2.687v-1.719l6.195.007c4.479.007,6.867-.593,6.867-1.559,0-.836-1.79-1.555-6.867-1.555m0,2.185h-6.195v-1.259h6.195c2.936,0,4.231.204,4.231.629,0,.52-1.917.63-4.231.63" transform="translate(0.1415 0.1415)"/><path d="M244.52078,88.86785c0-1.033-1.692-2.464-8.534-2.464-6.843,0-8.534,1.431-8.534,2.464,0,1.134,2.039,2.572,8.534,2.572,6.494,0,8.534-1.43805,8.534-2.572m-14.207-.014c0-.66095.945-1.525,5.673-1.525,4.727,0,5.672.864,5.672,1.532,0,.777-1.293,1.66-5.672,1.653-4.479-.007-5.673-.917-5.673-1.66" transform="translate(0.1415 0.1415)"/><path d="M235.9869,84.327c6.494,0,8.534-1.438,8.534-2.572,0-1.032-1.692-2.463-8.534-2.463-6.843,0-8.534,1.431-8.534,2.463,0,1.134,2.039,2.572,8.534,2.572m0-4.11005c4.727,0,5.672.864,5.672,1.532,0,.776-1.293,1.659-5.672,1.653-4.479-.007-5.673-.91705-5.673-1.66,0-.661.945-1.525,5.673-1.525" transform="translate(0.1415 0.1415)"/><path d="M258.89621,86.5122v2.652c0,1.277-3.036,1.35-5.027,1.35-1.99,0-5.001-.073-5.001-1.35v-2.652h-2.687v2.72c0,1.62,2.937,2.207,7.688,2.207,4.777,0,7.714-.587,7.714-2.207l-.026-2.72Z" transform="translate(0.1415 0.1415)"/><polygon points="278.805 91.48 278.805 86.654 276.117 86.654 276.117 90.373 265.816 86.654 263.13 86.654 263.13 91.48 265.816 91.48 265.816 87.761 276.117 91.48 278.805 91.48"/><path d="M297.063,88.92187c0-1.357-2.389-2.41-8.858-2.41h-8.136v4.826h2.687v-.006l5.449.006c6.369.007,8.858-1.032,8.858-2.416m-8.858,1.491h-5.449v-2.975h5.449c4.951,0,6.221.593,6.221,1.43,0,.992-1.768,1.545-6.221,1.545" transform="translate(0.1415 0.1415)"/><path d="M226.7232,89.97454c0-.468-.699-.761-2.025-.974-1.102-.17694-2.648-.3-4.599-.418-.506-.031-1.026-.061-1.587-.093-2.613-.148-5.126-.26995-5.126-.708,0-.439,2.525-.452,4.914-.452,2.275,0,4.375.101,5.027.633h3.018c-.616-1.106-3.969-1.559-8.082-1.559-4.03,0-7.763.385-7.763,1.418,0,.918,2.962,1.174,7.739,1.438,3.457.189,5.597.27,5.597.729,0,.338-1.12.525-5.15.525-2.313,0-6.02.056-6.02-.883h-2.912c0,1.451,4.827,1.809,8.982,1.809,5.623,0,7.987-.594,7.987-1.465" transform="translate(0.1415 0.1415)"/><path class="cls-1" d="M.0014,0h488.976" transform="translate(0.1415 0.1415)"/><path class="cls-1" d="M488.97641,54.99359V.00165" transform="translate(0.1415 0.1415)"/><path class="cls-1" d="M463.534,54.99207h25.444" transform="translate(0.1415 0.1415)"/><path class="cls-1" d="M463.534,54.995a8.508,8.508,0,0,1-8.503-8.505" transform="translate(0.1415 0.1415)"/><path class="cls-1" d="M455.03152,27.781V46.49" transform="translate(0.1415 0.1415)"/><path class="cls-1" d="M33.9492,27.7796h421.081" transform="translate(0.1415 0.1415)"/><path class="cls-1" d="M0,54.99359V.00165" transform="translate(0.1415 0.1415)"/><path class="cls-1" d="M25.4452,54.995H.0012" transform="translate(0.1415 0.1415)"/><path class="cls-1" d="M33.9506,46.48956a8.508,8.508,0,0,1-8.505,8.50305" transform="translate(0.1415 0.1415)"/><path class="cls-1" d="M33.9506,27.781V46.49" transform="translate(0.1415 0.1415)"/></svg>