%TF.GenerationSoftware,KiCad,Pcbnew,(6.0.0)*%
%TF.CreationDate,2022-03-19T15:46:14+01:00*%
%TF.ProjectId,SoftPop2_eurorack_Converter_bothsides,536f6674-506f-4703-925f-6575726f7261,rev?*%
%TF.SameCoordinates,Original*%
%TF.FileFunction,Legend,Top*%
%TF.FilePolarity,Positive*%
%FSLAX46Y46*%
G04 Gerber Fmt 4.6, Leading zero omitted, Abs format (unit mm)*
G04 Created by KiCad (PCBNEW (6.0.0)) date 2022-03-19 15:46:14*
%MOMM*%
%LPD*%
G01*
G04 APERTURE LIST*
G04 APERTURE END LIST*
%TO.C,G\u002A\u002A\u002A*%
G36*
X100657986Y-5530153D02*
G01*
X100893170Y-5530688D01*
X101108309Y-5531204D01*
X101304543Y-5531723D01*
X101483011Y-5532267D01*
X101644853Y-5532858D01*
X101791209Y-5533518D01*
X101923217Y-5534269D01*
X102042018Y-5535134D01*
X102148751Y-5536134D01*
X102244556Y-5537291D01*
X102330571Y-5538628D01*
X102407937Y-5540167D01*
X102477794Y-5541930D01*
X102541280Y-5543939D01*
X102599535Y-5546215D01*
X102653700Y-5548782D01*
X102704912Y-5551660D01*
X102754313Y-5554873D01*
X102803040Y-5558443D01*
X102852235Y-5562391D01*
X102903036Y-5566739D01*
X102956583Y-5571510D01*
X103001501Y-5575585D01*
X103260085Y-5602845D01*
X103498550Y-5635727D01*
X103717224Y-5674304D01*
X103916431Y-5718647D01*
X104096499Y-5768829D01*
X104257754Y-5824924D01*
X104399833Y-5886668D01*
X104512279Y-5947268D01*
X104605116Y-6010519D01*
X104679879Y-6077783D01*
X104738105Y-6150424D01*
X104778072Y-6222478D01*
X104794942Y-6278238D01*
X104802473Y-6345595D01*
X104800695Y-6417148D01*
X104789638Y-6485495D01*
X104776815Y-6526413D01*
X104748740Y-6578712D01*
X104705641Y-6635884D01*
X104651543Y-6693535D01*
X104590471Y-6747272D01*
X104541922Y-6782757D01*
X104430758Y-6847519D01*
X104299418Y-6907552D01*
X104148407Y-6962730D01*
X103978228Y-7012926D01*
X103789383Y-7058013D01*
X103582377Y-7097863D01*
X103357713Y-7132352D01*
X103115893Y-7161350D01*
X102990909Y-7173552D01*
X102934358Y-7178653D01*
X102881419Y-7183315D01*
X102830951Y-7187561D01*
X102781812Y-7191412D01*
X102732859Y-7194890D01*
X102682951Y-7198017D01*
X102630947Y-7200816D01*
X102575703Y-7203308D01*
X102516078Y-7205517D01*
X102450931Y-7207462D01*
X102379118Y-7209168D01*
X102299499Y-7210655D01*
X102210931Y-7211947D01*
X102112273Y-7213064D01*
X102002382Y-7214030D01*
X101880116Y-7214866D01*
X101744334Y-7215595D01*
X101593894Y-7216237D01*
X101427653Y-7216817D01*
X101244471Y-7217355D01*
X101043204Y-7217873D01*
X100822711Y-7218395D01*
X100652690Y-7218781D01*
X98812302Y-7222935D01*
X98812302Y-6906631D01*
X99755004Y-6906631D01*
X100991639Y-6900884D01*
X101166742Y-6899975D01*
X101336354Y-6898908D01*
X101499039Y-6897701D01*
X101653365Y-6896370D01*
X101797899Y-6894934D01*
X101931206Y-6893410D01*
X102051854Y-6891816D01*
X102158409Y-6890169D01*
X102249436Y-6888486D01*
X102323504Y-6886786D01*
X102379178Y-6885086D01*
X102413637Y-6883492D01*
X102636757Y-6867155D01*
X102839452Y-6847413D01*
X103022219Y-6824160D01*
X103185560Y-6797289D01*
X103329972Y-6766695D01*
X103455957Y-6732271D01*
X103564013Y-6693910D01*
X103654640Y-6651508D01*
X103728337Y-6604957D01*
X103730141Y-6603609D01*
X103794522Y-6547387D01*
X103839193Y-6489255D01*
X103865617Y-6426642D01*
X103875256Y-6356979D01*
X103875355Y-6348486D01*
X103865694Y-6280436D01*
X103836612Y-6217698D01*
X103787958Y-6160195D01*
X103719583Y-6107849D01*
X103631337Y-6060583D01*
X103523068Y-6018321D01*
X103394628Y-5980986D01*
X103245867Y-5948501D01*
X103076633Y-5920788D01*
X103027982Y-5914189D01*
X102961329Y-5905782D01*
X102895846Y-5898167D01*
X102830180Y-5891298D01*
X102762976Y-5885131D01*
X102692879Y-5879621D01*
X102618537Y-5874723D01*
X102538596Y-5870394D01*
X102451701Y-5866589D01*
X102356498Y-5863262D01*
X102251633Y-5860369D01*
X102135753Y-5857867D01*
X102007504Y-5855709D01*
X101865531Y-5853852D01*
X101708481Y-5852251D01*
X101535000Y-5850862D01*
X101343733Y-5849639D01*
X101133327Y-5848539D01*
X101018119Y-5848010D01*
X99755004Y-5842433D01*
X99755004Y-6906631D01*
X98812302Y-6906631D01*
X98812302Y-5526002D01*
X100657986Y-5530153D01*
G37*
G36*
X87796456Y-6026878D02*
G01*
X87796443Y-6148685D01*
X87796599Y-6251249D01*
X87797213Y-6336508D01*
X87798574Y-6406402D01*
X87800971Y-6462871D01*
X87804693Y-6507855D01*
X87810031Y-6543293D01*
X87817272Y-6571126D01*
X87826708Y-6593292D01*
X87838626Y-6611731D01*
X87853317Y-6628384D01*
X87871069Y-6645190D01*
X87891399Y-6663393D01*
X87952822Y-6710443D01*
X88027454Y-6752664D01*
X88116018Y-6790175D01*
X88219237Y-6823093D01*
X88337835Y-6851536D01*
X88472534Y-6875623D01*
X88624058Y-6895470D01*
X88793130Y-6911197D01*
X88980473Y-6922920D01*
X89186811Y-6930759D01*
X89412867Y-6934830D01*
X89560050Y-6935514D01*
X89795648Y-6933772D01*
X90011176Y-6928414D01*
X90207456Y-6919342D01*
X90385307Y-6906457D01*
X90545551Y-6889662D01*
X90689007Y-6868856D01*
X90816498Y-6843943D01*
X90928843Y-6814824D01*
X91026864Y-6781400D01*
X91095834Y-6751342D01*
X91182504Y-6702075D01*
X91249762Y-6648203D01*
X91296960Y-6590277D01*
X91307995Y-6570422D01*
X91312867Y-6559650D01*
X91316941Y-6547482D01*
X91320301Y-6531983D01*
X91323032Y-6511221D01*
X91325221Y-6483258D01*
X91326952Y-6446161D01*
X91328310Y-6397996D01*
X91329381Y-6336827D01*
X91330250Y-6260719D01*
X91331001Y-6167739D01*
X91331720Y-6055951D01*
X91331888Y-6027574D01*
X91334836Y-5527094D01*
X92276939Y-5527094D01*
X92276939Y-6044452D01*
X92276897Y-6163245D01*
X92276723Y-6262815D01*
X92276347Y-6345125D01*
X92275700Y-6412137D01*
X92274711Y-6465813D01*
X92273311Y-6508114D01*
X92271431Y-6541002D01*
X92268999Y-6566441D01*
X92265946Y-6586390D01*
X92262203Y-6602813D01*
X92257700Y-6617672D01*
X92256387Y-6621545D01*
X92217218Y-6704602D01*
X92158848Y-6781659D01*
X92081144Y-6852775D01*
X91983969Y-6918005D01*
X91867189Y-6977407D01*
X91730668Y-7031039D01*
X91574273Y-7078958D01*
X91397867Y-7121222D01*
X91201316Y-7157887D01*
X90984484Y-7189011D01*
X90894157Y-7199686D01*
X90689493Y-7219605D01*
X90467082Y-7235827D01*
X90230053Y-7248265D01*
X89981534Y-7256831D01*
X89724653Y-7261438D01*
X89462538Y-7261999D01*
X89198318Y-7258426D01*
X88993718Y-7252745D01*
X88710731Y-7239939D01*
X88448081Y-7221551D01*
X88205663Y-7197560D01*
X87983375Y-7167945D01*
X87781110Y-7132683D01*
X87598765Y-7091756D01*
X87436236Y-7045140D01*
X87293418Y-6992815D01*
X87170208Y-6934760D01*
X87066500Y-6870953D01*
X87048478Y-6857792D01*
X86980496Y-6797436D01*
X86922417Y-6727647D01*
X86879103Y-6654483D01*
X86871534Y-6637314D01*
X86866306Y-6623990D01*
X86861919Y-6610434D01*
X86858286Y-6594720D01*
X86855320Y-6574924D01*
X86852935Y-6549118D01*
X86851046Y-6515379D01*
X86849564Y-6471780D01*
X86848404Y-6416396D01*
X86847480Y-6347301D01*
X86846705Y-6262570D01*
X86845992Y-6160277D01*
X86845346Y-6054054D01*
X86842236Y-5527094D01*
X87796456Y-5527094D01*
X87796456Y-6026878D01*
G37*
G36*
X70262295Y-4409647D02*
G01*
X70392086Y-4409749D01*
X70503745Y-4409959D01*
X70598795Y-4410315D01*
X70678762Y-4410849D01*
X70745172Y-4411597D01*
X70799550Y-4412593D01*
X70843421Y-4413872D01*
X70878312Y-4415469D01*
X70905746Y-4417418D01*
X70927251Y-4419753D01*
X70944350Y-4422510D01*
X70958569Y-4425723D01*
X70970335Y-4429086D01*
X71031007Y-4455741D01*
X71078023Y-4492882D01*
X71108655Y-4537913D01*
X71118455Y-4569987D01*
X71119396Y-4632810D01*
X71100941Y-4688905D01*
X71064367Y-4736171D01*
X71010952Y-4772510D01*
X70989620Y-4781833D01*
X70979205Y-4785470D01*
X70967067Y-4788640D01*
X70951724Y-4791381D01*
X70931695Y-4793732D01*
X70905498Y-4795733D01*
X70871652Y-4797422D01*
X70828675Y-4798837D01*
X70775086Y-4800017D01*
X70709404Y-4801001D01*
X70630148Y-4801828D01*
X70535835Y-4802537D01*
X70424985Y-4803166D01*
X70296117Y-4803754D01*
X70147747Y-4804340D01*
X70125850Y-4804422D01*
X69312666Y-4807457D01*
X69318432Y-4409621D01*
X70112844Y-4409621D01*
X70262295Y-4409647D01*
G37*
G36*
X77114339Y-5490510D02*
G01*
X77250688Y-5491178D01*
X77381342Y-5492279D01*
X77503666Y-5493813D01*
X77615027Y-5495781D01*
X77712789Y-5498182D01*
X77794318Y-5501016D01*
X77850417Y-5503862D01*
X78107819Y-5522024D01*
X78345041Y-5543170D01*
X78562899Y-5567449D01*
X78762208Y-5595013D01*
X78943782Y-5626013D01*
X79108438Y-5660599D01*
X79256990Y-5698924D01*
X79390252Y-5741137D01*
X79509040Y-5787390D01*
X79592828Y-5826703D01*
X79654006Y-5860168D01*
X79703057Y-5893101D01*
X79748075Y-5931289D01*
X79772894Y-5955465D01*
X79847039Y-6030222D01*
X79315777Y-6032967D01*
X78784515Y-6035713D01*
X78706528Y-5993647D01*
X78632858Y-5959913D01*
X78543494Y-5929915D01*
X78437645Y-5903521D01*
X78314518Y-5880597D01*
X78173323Y-5861009D01*
X78013267Y-5844626D01*
X77833560Y-5831313D01*
X77696831Y-5823807D01*
X77643465Y-5821778D01*
X77571791Y-5819876D01*
X77484685Y-5818137D01*
X77385024Y-5816597D01*
X77275684Y-5815294D01*
X77159541Y-5814263D01*
X77039472Y-5813543D01*
X76918352Y-5813168D01*
X76860050Y-5813123D01*
X76634801Y-5813666D01*
X76429927Y-5815336D01*
X76244645Y-5818202D01*
X76078174Y-5822333D01*
X75929730Y-5827798D01*
X75798531Y-5834666D01*
X75683794Y-5843007D01*
X75584737Y-5852889D01*
X75500577Y-5864382D01*
X75430531Y-5877555D01*
X75373817Y-5892478D01*
X75329652Y-5909218D01*
X75297254Y-5927846D01*
X75275840Y-5948431D01*
X75272399Y-5953429D01*
X75266260Y-5979509D01*
X75280958Y-6004653D01*
X75316164Y-6028735D01*
X75371546Y-6051630D01*
X75446774Y-6073212D01*
X75541516Y-6093357D01*
X75655442Y-6111938D01*
X75710801Y-6119488D01*
X75759316Y-6125638D01*
X75807180Y-6131405D01*
X75855772Y-6136886D01*
X75906470Y-6142182D01*
X75960649Y-6147390D01*
X76019688Y-6152610D01*
X76084964Y-6157941D01*
X76157854Y-6163481D01*
X76239737Y-6169329D01*
X76331989Y-6175584D01*
X76435987Y-6182346D01*
X76553109Y-6189712D01*
X76684733Y-6197782D01*
X76832236Y-6206654D01*
X76996995Y-6216428D01*
X77180388Y-6227203D01*
X77347290Y-6236950D01*
X77619717Y-6253272D01*
X77871842Y-6269340D01*
X78104545Y-6285261D01*
X78318705Y-6301143D01*
X78515201Y-6317095D01*
X78694913Y-6333226D01*
X78858720Y-6349642D01*
X79007501Y-6366453D01*
X79142135Y-6383767D01*
X79263503Y-6401692D01*
X79372483Y-6420336D01*
X79469954Y-6439809D01*
X79556797Y-6460217D01*
X79633890Y-6481669D01*
X79702113Y-6504274D01*
X79762346Y-6528140D01*
X79781406Y-6536675D01*
X79857242Y-6577427D01*
X79912818Y-6620626D01*
X79949006Y-6667246D01*
X79966682Y-6718261D01*
X79968849Y-6745714D01*
X79960671Y-6800868D01*
X79935419Y-6851224D01*
X79892020Y-6897993D01*
X79829401Y-6942383D01*
X79762302Y-6978169D01*
X79659282Y-7021471D01*
X79538305Y-7061084D01*
X79399009Y-7097065D01*
X79241032Y-7129471D01*
X79064012Y-7158361D01*
X78867588Y-7183790D01*
X78651397Y-7205818D01*
X78415077Y-7224501D01*
X78158266Y-7239896D01*
X78094037Y-7243085D01*
X78012971Y-7246325D01*
X77913850Y-7249246D01*
X77799801Y-7251829D01*
X77673949Y-7254050D01*
X77539422Y-7255891D01*
X77399346Y-7257329D01*
X77256848Y-7258343D01*
X77115055Y-7258913D01*
X76977094Y-7259018D01*
X76846091Y-7258637D01*
X76725173Y-7257748D01*
X76617467Y-7256330D01*
X76526100Y-7254364D01*
X76505213Y-7253754D01*
X76199759Y-7241957D01*
X75913413Y-7226226D01*
X75646327Y-7206587D01*
X75398652Y-7183067D01*
X75170539Y-7155694D01*
X74962140Y-7124494D01*
X74773604Y-7089495D01*
X74605085Y-7050724D01*
X74456731Y-7008207D01*
X74328696Y-6961972D01*
X74221129Y-6912046D01*
X74134182Y-6858456D01*
X74087259Y-6820256D01*
X74035030Y-6764269D01*
X74000669Y-6710031D01*
X73985272Y-6659388D01*
X73984511Y-6647215D01*
X73984279Y-6618087D01*
X75009070Y-6618087D01*
X75015130Y-6648384D01*
X75032737Y-6691275D01*
X75067907Y-6730422D01*
X75121046Y-6765944D01*
X75192557Y-6797960D01*
X75282847Y-6826587D01*
X75392320Y-6851945D01*
X75521380Y-6874151D01*
X75670433Y-6893324D01*
X75839884Y-6909581D01*
X75933236Y-6916714D01*
X75984015Y-6919431D01*
X76053896Y-6921856D01*
X76140796Y-6923988D01*
X76242637Y-6925829D01*
X76357336Y-6927379D01*
X76482812Y-6928638D01*
X76616986Y-6929606D01*
X76757776Y-6930285D01*
X76903100Y-6930674D01*
X77050879Y-6930773D01*
X77199031Y-6930584D01*
X77345475Y-6930106D01*
X77488130Y-6929340D01*
X77624916Y-6928287D01*
X77753752Y-6926946D01*
X77872556Y-6925318D01*
X77979248Y-6923404D01*
X78071746Y-6921203D01*
X78147971Y-6918717D01*
X78199959Y-6916292D01*
X78358547Y-6906035D01*
X78496687Y-6894471D01*
X78615082Y-6881446D01*
X78714437Y-6866803D01*
X78795455Y-6850389D01*
X78858840Y-6832048D01*
X78905298Y-6811625D01*
X78935531Y-6788966D01*
X78950245Y-6763914D01*
X78952002Y-6750693D01*
X78941604Y-6720447D01*
X78911085Y-6692178D01*
X78861462Y-6666409D01*
X78793747Y-6643667D01*
X78708955Y-6624474D01*
X78707283Y-6624165D01*
X78655898Y-6615188D01*
X78601595Y-6606734D01*
X78542946Y-6598688D01*
X78478520Y-6590936D01*
X78406887Y-6583361D01*
X78326618Y-6575850D01*
X78236282Y-6568286D01*
X78134450Y-6560555D01*
X78019692Y-6552541D01*
X77890578Y-6544129D01*
X77745678Y-6535204D01*
X77583562Y-6525652D01*
X77402800Y-6515356D01*
X77251960Y-6506957D01*
X77029322Y-6494556D01*
X76826226Y-6483010D01*
X76641054Y-6472204D01*
X76472184Y-6462021D01*
X76317998Y-6452346D01*
X76176877Y-6443062D01*
X76047200Y-6434053D01*
X75927348Y-6425204D01*
X75815701Y-6416398D01*
X75710641Y-6407519D01*
X75610546Y-6398451D01*
X75513799Y-6389079D01*
X75418778Y-6379286D01*
X75323866Y-6368956D01*
X75320822Y-6368616D01*
X75126128Y-6344764D01*
X74952096Y-6318953D01*
X74798288Y-6291070D01*
X74664262Y-6261003D01*
X74549579Y-6228638D01*
X74453798Y-6193864D01*
X74376479Y-6156568D01*
X74317181Y-6116636D01*
X74309103Y-6109791D01*
X74270989Y-6066051D01*
X74252587Y-6017516D01*
X74251712Y-5966561D01*
X74268084Y-5912546D01*
X74304709Y-5861663D01*
X74361647Y-5813895D01*
X74438959Y-5769227D01*
X74536704Y-5727645D01*
X74654945Y-5689132D01*
X74793740Y-5653674D01*
X74953151Y-5621254D01*
X75133237Y-5591858D01*
X75334059Y-5565470D01*
X75555678Y-5542075D01*
X75798153Y-5521657D01*
X76061546Y-5504200D01*
X76065638Y-5503962D01*
X76134685Y-5500739D01*
X76221748Y-5497948D01*
X76324193Y-5495589D01*
X76439384Y-5493661D01*
X76564689Y-5492166D01*
X76697471Y-5491104D01*
X76835096Y-5490473D01*
X76974931Y-5490275D01*
X77114339Y-5490510D01*
G37*
G36*
X72914471Y-2984976D02*
G01*
X72914471Y-7264209D01*
X67681944Y-7264209D01*
X67681944Y-6354115D01*
X68370434Y-6354115D01*
X69850688Y-6350141D01*
X70059947Y-6349560D01*
X70249112Y-6348985D01*
X70419272Y-6348402D01*
X70571516Y-6347795D01*
X70706935Y-6347151D01*
X70826618Y-6346455D01*
X70931654Y-6345691D01*
X71023134Y-6344845D01*
X71102148Y-6343902D01*
X71169784Y-6342848D01*
X71227132Y-6341667D01*
X71275283Y-6340345D01*
X71315326Y-6338866D01*
X71348350Y-6337217D01*
X71375446Y-6335383D01*
X71397702Y-6333348D01*
X71416209Y-6331098D01*
X71431568Y-6328703D01*
X71574206Y-6300474D01*
X71697919Y-6268279D01*
X71804731Y-6231313D01*
X71896665Y-6188770D01*
X71975744Y-6139846D01*
X72041774Y-6085819D01*
X72105646Y-6019363D01*
X72153538Y-5952659D01*
X72187419Y-5881190D01*
X72209259Y-5800442D01*
X72221027Y-5705898D01*
X72223071Y-5670088D01*
X72223357Y-5566323D01*
X72213434Y-5477798D01*
X72191869Y-5400471D01*
X72157228Y-5330300D01*
X72108078Y-5263245D01*
X72060750Y-5212487D01*
X72021479Y-5175408D01*
X71984873Y-5146015D01*
X71944495Y-5119903D01*
X71893908Y-5092668D01*
X71863928Y-5077814D01*
X71809482Y-5052627D01*
X71753518Y-5028975D01*
X71703149Y-5009748D01*
X71669892Y-4999000D01*
X71632375Y-4987836D01*
X71613536Y-4979802D01*
X71611297Y-4973790D01*
X71616931Y-4970738D01*
X71726488Y-4926037D01*
X71816950Y-4879528D01*
X71890405Y-4829644D01*
X71948940Y-4774821D01*
X71994643Y-4713491D01*
X72018326Y-4669674D01*
X72032124Y-4639388D01*
X72041406Y-4613906D01*
X72047062Y-4587751D01*
X72049986Y-4555452D01*
X72051069Y-4511533D01*
X72051210Y-4467878D01*
X72050862Y-4411126D01*
X72049278Y-4370181D01*
X72045650Y-4339671D01*
X72039167Y-4314222D01*
X72029020Y-4288463D01*
X72021794Y-4272663D01*
X71977774Y-4195487D01*
X71922854Y-4131951D01*
X71852089Y-4076403D01*
X71847217Y-4073192D01*
X71765658Y-4025835D01*
X71677357Y-3986634D01*
X71579497Y-3954812D01*
X71469261Y-3929593D01*
X71343831Y-3910201D01*
X71204947Y-3896220D01*
X71173034Y-3894561D01*
X71120783Y-3893018D01*
X71049039Y-3891597D01*
X70958650Y-3890304D01*
X70850461Y-3889145D01*
X70725317Y-3888127D01*
X70584066Y-3887255D01*
X70427552Y-3886537D01*
X70256622Y-3885977D01*
X70072122Y-3885583D01*
X69874898Y-3885360D01*
X69719396Y-3885309D01*
X68370434Y-3885309D01*
X68370434Y-6354115D01*
X67681944Y-6354115D01*
X67681944Y-2984976D01*
X72914471Y-2984976D01*
G37*
G36*
X95547269Y-3008790D02*
G01*
X98531610Y-3011456D01*
X98534534Y-3172987D01*
X98537458Y-3334517D01*
X96015972Y-3334517D01*
X96015972Y-4711498D01*
X95073270Y-4711498D01*
X95073270Y-3334517D01*
X92562928Y-3334517D01*
X92562928Y-3006123D01*
X95547269Y-3008790D01*
G37*
G36*
X80238949Y-6353060D02*
G01*
X80239860Y-6305347D01*
X80243860Y-6270117D01*
X80252851Y-6238702D01*
X80268736Y-6202434D01*
X80274681Y-6190222D01*
X80325903Y-6109114D01*
X80397396Y-6032090D01*
X80488604Y-5959354D01*
X80598973Y-5891105D01*
X80727948Y-5827547D01*
X80874973Y-5768881D01*
X81039495Y-5715310D01*
X81220957Y-5667033D01*
X81418806Y-5624255D01*
X81632486Y-5587175D01*
X81861442Y-5555997D01*
X82081985Y-5532979D01*
X82296994Y-5516199D01*
X82527621Y-5503041D01*
X82769379Y-5493537D01*
X83017780Y-5487722D01*
X83268337Y-5485629D01*
X83516561Y-5487290D01*
X83757966Y-5492741D01*
X83988063Y-5502014D01*
X84202364Y-5515142D01*
X84226898Y-5516985D01*
X84497644Y-5541600D01*
X84750901Y-5572503D01*
X84986274Y-5609603D01*
X85203367Y-5652805D01*
X85401784Y-5702020D01*
X85581131Y-5757153D01*
X85741011Y-5818114D01*
X85881030Y-5884809D01*
X85935996Y-5915800D01*
X85993160Y-5954114D01*
X86051809Y-6000909D01*
X86107673Y-6052097D01*
X86156486Y-6103593D01*
X86193980Y-6151309D01*
X86210335Y-6178512D01*
X86242996Y-6264240D01*
X86254791Y-6349107D01*
X86246034Y-6432698D01*
X86217039Y-6514596D01*
X86168119Y-6594388D01*
X86099588Y-6671656D01*
X86011761Y-6745987D01*
X85904949Y-6816965D01*
X85779469Y-6884173D01*
X85635632Y-6947198D01*
X85627136Y-6950558D01*
X85468071Y-7006678D01*
X85289375Y-7057770D01*
X85092039Y-7103657D01*
X84877054Y-7144167D01*
X84645408Y-7179123D01*
X84398093Y-7208353D01*
X84136098Y-7231681D01*
X83967390Y-7243065D01*
X83890234Y-7246853D01*
X83795578Y-7250186D01*
X83687103Y-7253031D01*
X83568490Y-7255358D01*
X83443418Y-7257136D01*
X83315567Y-7258332D01*
X83188619Y-7258917D01*
X83066254Y-7258857D01*
X82952152Y-7258123D01*
X82849993Y-7256683D01*
X82763459Y-7254505D01*
X82736758Y-7253531D01*
X82444864Y-7238102D01*
X82168421Y-7216063D01*
X81907960Y-7187525D01*
X81664013Y-7152601D01*
X81437111Y-7111404D01*
X81227786Y-7064047D01*
X81036570Y-7010643D01*
X80863995Y-6951303D01*
X80710593Y-6886141D01*
X80576895Y-6815270D01*
X80530234Y-6786123D01*
X80460096Y-6734281D01*
X80394112Y-6674555D01*
X80336572Y-6611457D01*
X80291769Y-6549501D01*
X80273380Y-6516015D01*
X80255704Y-6476076D01*
X80245325Y-6443037D01*
X80240371Y-6408038D01*
X80239027Y-6364112D01*
X81244493Y-6364112D01*
X81255221Y-6427013D01*
X81273895Y-6470854D01*
X81328190Y-6543091D01*
X81402710Y-6609335D01*
X81497352Y-6669552D01*
X81612011Y-6723705D01*
X81746584Y-6771759D01*
X81900965Y-6813680D01*
X82075052Y-6849431D01*
X82268740Y-6878978D01*
X82481925Y-6902285D01*
X82563928Y-6909180D01*
X82756715Y-6921507D01*
X82962985Y-6929830D01*
X83175399Y-6934047D01*
X83386617Y-6934055D01*
X83589301Y-6929752D01*
X83702586Y-6925116D01*
X83937490Y-6910047D01*
X84153840Y-6888943D01*
X84351369Y-6861860D01*
X84529808Y-6828854D01*
X84688890Y-6789983D01*
X84828348Y-6745303D01*
X84947914Y-6694872D01*
X85044821Y-6640389D01*
X85123558Y-6581687D01*
X85181881Y-6521636D01*
X85220561Y-6459122D01*
X85240369Y-6393030D01*
X85243512Y-6352714D01*
X85233479Y-6281963D01*
X85202971Y-6215700D01*
X85152240Y-6154042D01*
X85081542Y-6097108D01*
X84991128Y-6045013D01*
X84881252Y-5997875D01*
X84752167Y-5955810D01*
X84604126Y-5918936D01*
X84437383Y-5887368D01*
X84252192Y-5861225D01*
X84155472Y-5850500D01*
X83984485Y-5835838D01*
X83797028Y-5824689D01*
X83597521Y-5817053D01*
X83390385Y-5812929D01*
X83180042Y-5812319D01*
X82970911Y-5815221D01*
X82767414Y-5821635D01*
X82573971Y-5831561D01*
X82395003Y-5844999D01*
X82336197Y-5850572D01*
X82143191Y-5873671D01*
X81967737Y-5902296D01*
X81810233Y-5936300D01*
X81671081Y-5975537D01*
X81550678Y-6019862D01*
X81449426Y-6069127D01*
X81367723Y-6123187D01*
X81305970Y-6181895D01*
X81266036Y-6242065D01*
X81248004Y-6299749D01*
X81244493Y-6364112D01*
X80239027Y-6364112D01*
X80238969Y-6362213D01*
X80238949Y-6353060D01*
G37*
G36*
X89758543Y-2976684D02*
G01*
X89883045Y-2977290D01*
X89997654Y-2978413D01*
X90099543Y-2980073D01*
X90185888Y-2982287D01*
X90227356Y-2983817D01*
X90518846Y-2998988D01*
X90790446Y-3018868D01*
X91042072Y-3043442D01*
X91273635Y-3072694D01*
X91485051Y-3106609D01*
X91676231Y-3145169D01*
X91847091Y-3188358D01*
X91997543Y-3236162D01*
X92127500Y-3288564D01*
X92236877Y-3345548D01*
X92259139Y-3359317D01*
X92296117Y-3385641D01*
X92333724Y-3416836D01*
X92368098Y-3449132D01*
X92395379Y-3478759D01*
X92411706Y-3501945D01*
X92414637Y-3511183D01*
X92411276Y-3514443D01*
X92400159Y-3517180D01*
X92379739Y-3519434D01*
X92348470Y-3521247D01*
X92304804Y-3522659D01*
X92247193Y-3523713D01*
X92174090Y-3524450D01*
X92083947Y-3524910D01*
X91975218Y-3525136D01*
X91890098Y-3525176D01*
X91365559Y-3525176D01*
X91326023Y-3499012D01*
X91267902Y-3466670D01*
X91195479Y-3437416D01*
X91107707Y-3411028D01*
X91003540Y-3387285D01*
X90881931Y-3365961D01*
X90741833Y-3346836D01*
X90582199Y-3329686D01*
X90492160Y-3321563D01*
X90448908Y-3318891D01*
X90386576Y-3316495D01*
X90307241Y-3314376D01*
X90212977Y-3312534D01*
X90105859Y-3310969D01*
X89987961Y-3309680D01*
X89861359Y-3308667D01*
X89728127Y-3307931D01*
X89590341Y-3307471D01*
X89450074Y-3307287D01*
X89309403Y-3307378D01*
X89170401Y-3307745D01*
X89035144Y-3308388D01*
X88905707Y-3309306D01*
X88784164Y-3310500D01*
X88672591Y-3311968D01*
X88573061Y-3313712D01*
X88487651Y-3315730D01*
X88418434Y-3318023D01*
X88367486Y-3320591D01*
X88352544Y-3321707D01*
X88223798Y-3334294D01*
X88115438Y-3348248D01*
X88026696Y-3363783D01*
X87956806Y-3381115D01*
X87904999Y-3400457D01*
X87870509Y-3422027D01*
X87852568Y-3446038D01*
X87849416Y-3462748D01*
X87859881Y-3487145D01*
X87890765Y-3510956D01*
X87941308Y-3533881D01*
X88010748Y-3555615D01*
X88098322Y-3575855D01*
X88164837Y-3588106D01*
X88214207Y-3596152D01*
X88264541Y-3603698D01*
X88317256Y-3610858D01*
X88373775Y-3617745D01*
X88435515Y-3624473D01*
X88503898Y-3631156D01*
X88580342Y-3637906D01*
X88666269Y-3644837D01*
X88763098Y-3652063D01*
X88872248Y-3659697D01*
X88995140Y-3667853D01*
X89133193Y-3676644D01*
X89287828Y-3686184D01*
X89460464Y-3696586D01*
X89652521Y-3707964D01*
X89697748Y-3710622D01*
X89948293Y-3725509D01*
X90178858Y-3739599D01*
X90390627Y-3753000D01*
X90584786Y-3765818D01*
X90762519Y-3778160D01*
X90925011Y-3790134D01*
X91073447Y-3801845D01*
X91209012Y-3813400D01*
X91332891Y-3824906D01*
X91446268Y-3836471D01*
X91550329Y-3848199D01*
X91646258Y-3860200D01*
X91735240Y-3872578D01*
X91818461Y-3885441D01*
X91897104Y-3898896D01*
X91972354Y-3913049D01*
X91995195Y-3917598D01*
X92134150Y-3948793D01*
X92252468Y-3982250D01*
X92350600Y-4018221D01*
X92428999Y-4056954D01*
X92488115Y-4098700D01*
X92528401Y-4143708D01*
X92550308Y-4192229D01*
X92554936Y-4227298D01*
X92546074Y-4285950D01*
X92517500Y-4340753D01*
X92468986Y-4391879D01*
X92400302Y-4439503D01*
X92311220Y-4483796D01*
X92201509Y-4524930D01*
X92130579Y-4546764D01*
X92005624Y-4579598D01*
X91869724Y-4609184D01*
X91721773Y-4635633D01*
X91560663Y-4659060D01*
X91385286Y-4679580D01*
X91194534Y-4697305D01*
X90987301Y-4712350D01*
X90762477Y-4724828D01*
X90518957Y-4734854D01*
X90255630Y-4742541D01*
X90216907Y-4743442D01*
X90105301Y-4745933D01*
X90009547Y-4747957D01*
X89926199Y-4749509D01*
X89851812Y-4750589D01*
X89782938Y-4751191D01*
X89716133Y-4751315D01*
X89647950Y-4750956D01*
X89574943Y-4750111D01*
X89493666Y-4748779D01*
X89400673Y-4746956D01*
X89292518Y-4744638D01*
X89199917Y-4742586D01*
X88899152Y-4733627D01*
X88615004Y-4720565D01*
X88347823Y-4703461D01*
X88097961Y-4682373D01*
X87865770Y-4657364D01*
X87651601Y-4628492D01*
X87455805Y-4595818D01*
X87278736Y-4559402D01*
X87120743Y-4519303D01*
X86982178Y-4475583D01*
X86863394Y-4428301D01*
X86764741Y-4377517D01*
X86686572Y-4323291D01*
X86671675Y-4310472D01*
X86634348Y-4270556D01*
X86602351Y-4224634D01*
X86579165Y-4178703D01*
X86568270Y-4138762D01*
X86567868Y-4131577D01*
X86567765Y-4107745D01*
X87081485Y-4107745D01*
X87199188Y-4107780D01*
X87297453Y-4107930D01*
X87378024Y-4108257D01*
X87442648Y-4108825D01*
X87493070Y-4109698D01*
X87531036Y-4110939D01*
X87558290Y-4112612D01*
X87576579Y-4114780D01*
X87587648Y-4117508D01*
X87593243Y-4120859D01*
X87595109Y-4124896D01*
X87595205Y-4126470D01*
X87600914Y-4146456D01*
X87615222Y-4174089D01*
X87621668Y-4184140D01*
X87659113Y-4222566D01*
X87716881Y-4258086D01*
X87794283Y-4290507D01*
X87890631Y-4319639D01*
X88005238Y-4345290D01*
X88137416Y-4367268D01*
X88286478Y-4385383D01*
X88373728Y-4393489D01*
X88472705Y-4400481D01*
X88589960Y-4406538D01*
X88723190Y-4411668D01*
X88870094Y-4415881D01*
X89028370Y-4419187D01*
X89195716Y-4421593D01*
X89369832Y-4423110D01*
X89548414Y-4423747D01*
X89729162Y-4423514D01*
X89909773Y-4422418D01*
X90087946Y-4420470D01*
X90261379Y-4417678D01*
X90427771Y-4414053D01*
X90584820Y-4409602D01*
X90730223Y-4404337D01*
X90861680Y-4398264D01*
X90976888Y-4391395D01*
X91073547Y-4383737D01*
X91085321Y-4382617D01*
X91204978Y-4368912D01*
X91307145Y-4352890D01*
X91391039Y-4334741D01*
X91455872Y-4314655D01*
X91500861Y-4292822D01*
X91518953Y-4277934D01*
X91534822Y-4247791D01*
X91530610Y-4216978D01*
X91507167Y-4188092D01*
X91484602Y-4172973D01*
X91456358Y-4158863D01*
X91424133Y-4145738D01*
X91386834Y-4133484D01*
X91343369Y-4121984D01*
X91292646Y-4111120D01*
X91233571Y-4100776D01*
X91165051Y-4090837D01*
X91085995Y-4081184D01*
X90995310Y-4071703D01*
X90891903Y-4062275D01*
X90774680Y-4052786D01*
X90642551Y-4043117D01*
X90494422Y-4033153D01*
X90329200Y-4022777D01*
X90145793Y-4011873D01*
X89943108Y-4000324D01*
X89782486Y-3991426D01*
X89509465Y-3976165D01*
X89256622Y-3961412D01*
X89022956Y-3947074D01*
X88807469Y-3933055D01*
X88609162Y-3919259D01*
X88427035Y-3905594D01*
X88260090Y-3891962D01*
X88107328Y-3878271D01*
X87967750Y-3864424D01*
X87840356Y-3850327D01*
X87724148Y-3835885D01*
X87618127Y-3821004D01*
X87521293Y-3805588D01*
X87432649Y-3789542D01*
X87351194Y-3772772D01*
X87275930Y-3755182D01*
X87264625Y-3752344D01*
X87144628Y-3718569D01*
X87045165Y-3683105D01*
X86965626Y-3645529D01*
X86905399Y-3605416D01*
X86863873Y-3562344D01*
X86840436Y-3515888D01*
X86834476Y-3465625D01*
X86835348Y-3454895D01*
X86851111Y-3401688D01*
X86886150Y-3351595D01*
X86940609Y-3304578D01*
X87014634Y-3260599D01*
X87108368Y-3219619D01*
X87221957Y-3181601D01*
X87355546Y-3146508D01*
X87509280Y-3114300D01*
X87683303Y-3084940D01*
X87877760Y-3058391D01*
X88092797Y-3034613D01*
X88328558Y-3013570D01*
X88585188Y-2995222D01*
X88590868Y-2994862D01*
X88658930Y-2991347D01*
X88745349Y-2988158D01*
X88847300Y-2985315D01*
X88961958Y-2982836D01*
X89086498Y-2980740D01*
X89218094Y-2979048D01*
X89353922Y-2977777D01*
X89491156Y-2976946D01*
X89626971Y-2976576D01*
X89758543Y-2976684D01*
G37*
G36*
X80243871Y-3759715D02*
G01*
X80252859Y-3728315D01*
X80268721Y-3692116D01*
X80274442Y-3680366D01*
X80327423Y-3596021D01*
X80400662Y-3516652D01*
X80493808Y-3442342D01*
X80606506Y-3373176D01*
X80738403Y-3309236D01*
X80889148Y-3250607D01*
X81058386Y-3197373D01*
X81245764Y-3149618D01*
X81450930Y-3107425D01*
X81673531Y-3070878D01*
X81913213Y-3040062D01*
X82169623Y-3015060D01*
X82442409Y-2995956D01*
X82731217Y-2982834D01*
X83035695Y-2975778D01*
X83245340Y-2974484D01*
X83567703Y-2977749D01*
X83873492Y-2987325D01*
X84162404Y-3003150D01*
X84434138Y-3025164D01*
X84688392Y-3053304D01*
X84924865Y-3087510D01*
X85143254Y-3127721D01*
X85343257Y-3173875D01*
X85524573Y-3225911D01*
X85686901Y-3283768D01*
X85829937Y-3347385D01*
X85953381Y-3416700D01*
X86056930Y-3491653D01*
X86128705Y-3559345D01*
X86191500Y-3639326D01*
X86233185Y-3720535D01*
X86253770Y-3802557D01*
X86253267Y-3884981D01*
X86231687Y-3967392D01*
X86189040Y-4049378D01*
X86125336Y-4130525D01*
X86113476Y-4143107D01*
X86026507Y-4221976D01*
X85923115Y-4294940D01*
X85802550Y-4362339D01*
X85664066Y-4424515D01*
X85506913Y-4481808D01*
X85330343Y-4534557D01*
X85158977Y-4577335D01*
X84941515Y-4621923D01*
X84705421Y-4660101D01*
X84452289Y-4691759D01*
X84183713Y-4716786D01*
X83901289Y-4735072D01*
X83606609Y-4746507D01*
X83301269Y-4750979D01*
X82986862Y-4748379D01*
X82773001Y-4742662D01*
X82479810Y-4728960D01*
X82201771Y-4708377D01*
X81939440Y-4681028D01*
X81693369Y-4647029D01*
X81464111Y-4606495D01*
X81252219Y-4559540D01*
X81058247Y-4506282D01*
X80882748Y-4446833D01*
X80726274Y-4381311D01*
X80589379Y-4309830D01*
X80535149Y-4276297D01*
X80451847Y-4215334D01*
X80378778Y-4148731D01*
X80319272Y-4079932D01*
X80276658Y-4012380D01*
X80273292Y-4005485D01*
X80255656Y-3965620D01*
X80245303Y-3932600D01*
X80240363Y-3897569D01*
X80238968Y-3851672D01*
X80238949Y-3842718D01*
X80239197Y-3829778D01*
X81241412Y-3829778D01*
X81249093Y-3894926D01*
X81275559Y-3959565D01*
X81320445Y-4022604D01*
X81383388Y-4082954D01*
X81464025Y-4139525D01*
X81561993Y-4191228D01*
X81615309Y-4214093D01*
X81734328Y-4256864D01*
X81864476Y-4294025D01*
X82008369Y-4326180D01*
X82168627Y-4353933D01*
X82299124Y-4371971D01*
X82466112Y-4389949D01*
X82649430Y-4404283D01*
X82844516Y-4414832D01*
X83046808Y-4421456D01*
X83251745Y-4424013D01*
X83454762Y-4422363D01*
X83651300Y-4416365D01*
X83686697Y-4414763D01*
X83925732Y-4399900D01*
X84144681Y-4379065D01*
X84343798Y-4352207D01*
X84523340Y-4319270D01*
X84683560Y-4280204D01*
X84824715Y-4234953D01*
X84947058Y-4183466D01*
X85038306Y-4133613D01*
X85120304Y-4074448D01*
X85181481Y-4011480D01*
X85221859Y-3944676D01*
X85241463Y-3874001D01*
X85243512Y-3842372D01*
X85233504Y-3770925D01*
X85203009Y-3704232D01*
X85152200Y-3642357D01*
X85081250Y-3585365D01*
X84990332Y-3533320D01*
X84879617Y-3486287D01*
X84749278Y-3444329D01*
X84599488Y-3407510D01*
X84430419Y-3375896D01*
X84242243Y-3349551D01*
X84035134Y-3328538D01*
X83825175Y-3313809D01*
X83747761Y-3310328D01*
X83653104Y-3307540D01*
X83545079Y-3305447D01*
X83427558Y-3304049D01*
X83304415Y-3303348D01*
X83179523Y-3303345D01*
X83056755Y-3304040D01*
X82939985Y-3305435D01*
X82833086Y-3307531D01*
X82739932Y-3310328D01*
X82669850Y-3313514D01*
X82446610Y-3329047D01*
X82243503Y-3349358D01*
X82060001Y-3374561D01*
X81895572Y-3404769D01*
X81749687Y-3440098D01*
X81621814Y-3480662D01*
X81511424Y-3526575D01*
X81417986Y-3577950D01*
X81405793Y-3585873D01*
X81334705Y-3642167D01*
X81283854Y-3702308D01*
X81252878Y-3765208D01*
X81241412Y-3829778D01*
X80239197Y-3829778D01*
X80239865Y-3794967D01*
X80243871Y-3759715D01*
G37*
G36*
X70179045Y-5338846D02*
G01*
X70335603Y-5339435D01*
X70472397Y-5340025D01*
X70590851Y-5340648D01*
X70692386Y-5341340D01*
X70778423Y-5342133D01*
X70850384Y-5343062D01*
X70909691Y-5344161D01*
X70957766Y-5345464D01*
X70996030Y-5347005D01*
X71025905Y-5348817D01*
X71048813Y-5350935D01*
X71066176Y-5353393D01*
X71079414Y-5356224D01*
X71089950Y-5359462D01*
X71093212Y-5360679D01*
X71156568Y-5392863D01*
X71201912Y-5434071D01*
X71231197Y-5486241D01*
X71236798Y-5503122D01*
X71247204Y-5572765D01*
X71237724Y-5637581D01*
X71209500Y-5695325D01*
X71163674Y-5743747D01*
X71101385Y-5780599D01*
X71094444Y-5783501D01*
X71034362Y-5807786D01*
X69313136Y-5813680D01*
X69313136Y-5335729D01*
X70179045Y-5338846D01*
G37*
G36*
X95531331Y-6174690D02*
G01*
X95719042Y-6242487D01*
X95901515Y-6308374D01*
X96077740Y-6371989D01*
X96246710Y-6432967D01*
X96407418Y-6490946D01*
X96558856Y-6545563D01*
X96700015Y-6596454D01*
X96829888Y-6643256D01*
X96947467Y-6685606D01*
X97051744Y-6723142D01*
X97141712Y-6755499D01*
X97216361Y-6782315D01*
X97274685Y-6803226D01*
X97315675Y-6817870D01*
X97338325Y-6825882D01*
X97342640Y-6827343D01*
X97346443Y-6827462D01*
X97349688Y-6824559D01*
X97352420Y-6817098D01*
X97354683Y-6803542D01*
X97356520Y-6782356D01*
X97357975Y-6752003D01*
X97359093Y-6710946D01*
X97359918Y-6657651D01*
X97360493Y-6590579D01*
X97360862Y-6508196D01*
X97361069Y-6408964D01*
X97361159Y-6291348D01*
X97361176Y-6179747D01*
X97361176Y-5527094D01*
X98314471Y-5527094D01*
X98314471Y-7221840D01*
X97353511Y-7221840D01*
X95549314Y-6570422D01*
X95361170Y-6502508D01*
X95178360Y-6436552D01*
X95001883Y-6372913D01*
X94832735Y-6311950D01*
X94671913Y-6254020D01*
X94520415Y-6199482D01*
X94379239Y-6148695D01*
X94249381Y-6102016D01*
X94131838Y-6059805D01*
X94027608Y-6022418D01*
X93937688Y-5990216D01*
X93863075Y-5963556D01*
X93804767Y-5942796D01*
X93763760Y-5928295D01*
X93741052Y-5920412D01*
X93736592Y-5919004D01*
X93735083Y-5929295D01*
X93733659Y-5958962D01*
X93732344Y-6006196D01*
X93731161Y-6069190D01*
X93730135Y-6146135D01*
X93729289Y-6235223D01*
X93728646Y-6334645D01*
X93728231Y-6442594D01*
X93728067Y-6557261D01*
X93728065Y-6570422D01*
X93728065Y-7221840D01*
X92774771Y-7221840D01*
X92774771Y-5527094D01*
X93738559Y-5527094D01*
X95531331Y-6174690D01*
G37*
G36*
X76134487Y-3011609D02*
G01*
X76377544Y-3011649D01*
X76600542Y-3011740D01*
X76804610Y-3011902D01*
X76990872Y-3012154D01*
X77160456Y-3012517D01*
X77314488Y-3013010D01*
X77454095Y-3013653D01*
X77580403Y-3014465D01*
X77694538Y-3015466D01*
X77797627Y-3016677D01*
X77890797Y-3018116D01*
X77975173Y-3019805D01*
X78051883Y-3021761D01*
X78122053Y-3024006D01*
X78186810Y-3026558D01*
X78247279Y-3029439D01*
X78304588Y-3032666D01*
X78359862Y-3036261D01*
X78414229Y-3040243D01*
X78468814Y-3044632D01*
X78524745Y-3049447D01*
X78581276Y-3054538D01*
X78791678Y-3076851D01*
X78984759Y-3103680D01*
X79160037Y-3134894D01*
X79317031Y-3170367D01*
X79455260Y-3209969D01*
X79574241Y-3253572D01*
X79673493Y-3301048D01*
X79752535Y-3352268D01*
X79778041Y-3373466D01*
X79828787Y-3428129D01*
X79859866Y-3484218D01*
X79872742Y-3544605D01*
X79873287Y-3560022D01*
X79863161Y-3623376D01*
X79832388Y-3683443D01*
X79781268Y-3740092D01*
X79710102Y-3793189D01*
X79619191Y-3842603D01*
X79508835Y-3888203D01*
X79379336Y-3929855D01*
X79230995Y-3967428D01*
X79064111Y-4000791D01*
X78878985Y-4029810D01*
X78771935Y-4043580D01*
X78697279Y-4052275D01*
X78624759Y-4060159D01*
X78553039Y-4067272D01*
X78480784Y-4073652D01*
X78406660Y-4079337D01*
X78329332Y-4084367D01*
X78247465Y-4088780D01*
X78159723Y-4092614D01*
X78064772Y-4095908D01*
X77961277Y-4098700D01*
X77847903Y-4101030D01*
X77723315Y-4102936D01*
X77586179Y-4104455D01*
X77435158Y-4105628D01*
X77268919Y-4106492D01*
X77086126Y-4107087D01*
X76885444Y-4107450D01*
X76665539Y-4107620D01*
X76555526Y-4107644D01*
X75265930Y-4107745D01*
X75265930Y-4711498D01*
X74312510Y-4711498D01*
X74315478Y-3780788D01*
X75265930Y-3780788D01*
X76725000Y-3776264D01*
X76971080Y-3775414D01*
X77196115Y-3774454D01*
X77400248Y-3773382D01*
X77583617Y-3772198D01*
X77746364Y-3770900D01*
X77888628Y-3769485D01*
X78010550Y-3767954D01*
X78112270Y-3766304D01*
X78193929Y-3764534D01*
X78255667Y-3762642D01*
X78297625Y-3760627D01*
X78311176Y-3759577D01*
X78451036Y-3744828D01*
X78570884Y-3729112D01*
X78671883Y-3712099D01*
X78755197Y-3693459D01*
X78821989Y-3672861D01*
X78873421Y-3649975D01*
X78910657Y-3624471D01*
X78934861Y-3596018D01*
X78942589Y-3580190D01*
X78945986Y-3544928D01*
X78928900Y-3511759D01*
X78891956Y-3480976D01*
X78835779Y-3452873D01*
X78760994Y-3427741D01*
X78668225Y-3405876D01*
X78558099Y-3387569D01*
X78521824Y-3382821D01*
X78475598Y-3377257D01*
X78430621Y-3372220D01*
X78385635Y-3367680D01*
X78339385Y-3363605D01*
X78290614Y-3359965D01*
X78238066Y-3356730D01*
X78180485Y-3353869D01*
X78116614Y-3351350D01*
X78045197Y-3349144D01*
X77964978Y-3347219D01*
X77874700Y-3345545D01*
X77773108Y-3344092D01*
X77658944Y-3342828D01*
X77530952Y-3341722D01*
X77387877Y-3340745D01*
X77228462Y-3339865D01*
X77051450Y-3339052D01*
X76855585Y-3338275D01*
X76672039Y-3337615D01*
X75265930Y-3332728D01*
X75265930Y-3780788D01*
X74315478Y-3780788D01*
X74316907Y-3332728D01*
X74317932Y-3011456D01*
X76134487Y-3011609D01*
G37*
%TD*%
M02*
